<?xml version="1.0" encoding="iso-8859-1"?>
<!-- Generator: Adobe Illustrator 19.0.0, SVG Export Plug-In . SVG Version: 6.00 Build 0)  -->
<svg version="1.1" id="Layer_1" xmlns="http://www.w3.org/2000/svg" xmlns:xlink="http://www.w3.org/1999/xlink" x="0px" y="0px"
	 viewBox="0 0 480.014 480.014" style="enable-background:new 0 0 480.014 480.014;" xml:space="preserve">
<g>
	<g>
		<g>
			<path d="M210.656,271.035c0-5.522-4.477-10-10-10c-34.34,0-61.24,19.389-61.24,44.141c0,5.522,4.478,10,10,10
				c5.523,0,10-4.478,10-10c0-12.86,19.271-24.141,41.24-24.141C206.178,281.035,210.656,276.558,210.656,271.035z"/>
			<path d="M269.149,271.035c0,5.522,4.478,10,10,10c21.969,0,41.24,11.28,41.24,24.141c0,5.522,4.478,10,10,10
				c5.522,0,10-4.478,10-10c0-24.752-26.9-44.141-61.24-44.141C273.627,261.035,269.149,265.513,269.149,271.035z"/>
			<path d="M464.151,148.08c-24.148-27.148-66.827-25.579-71.275-25.336l-45.813,0.452c-2.144-19.212-14.416-36.958-31.826-45.426
				c5.108-25.358-7.18-50.896-31.092-62.058c-12.405-5.821-25.617-6.979-38.552-3.405c-13.88,3.815-24.756,11.717-32.44,23.544
				c-4.97-1.616-10.034-2.431-15.142-2.431c-11.02,0-21.679,3.891-30.018,10.961c-14.026,11.917-19.953,26.949-17.504,43.988
				c-12.017,2.345-22.904,9.354-30.185,19.727c-3.325,4.736-5.728,9.946-7.196,15.363l-25.873-0.711
				c-3.886-0.22-47.037-2.025-71.37,25.331C1.534,164.19-3.12,186.498,2.033,214.384c0.401,2.171,1.51,4.147,3.152,5.623
				c0.624,0.56,15.571,13.746,41.016,15.929c2.22,0.191,4.563,0.299,7.034,0.299c15.088,0,34.736-4.054,57.502-18.042
				c-6.458,17.789-9.714,35.391-9.714,52.663c0,52.43,13.898,101.853,39.137,139.163c26.048,38.509,61.071,59.717,98.619,59.717
				c37.563,0,72.599-21.207,98.654-59.715c25.245-37.311,39.148-86.733,39.148-139.165c0-18.74-3.82-37.82-11.389-57.094
				c25.138,15.194,46.964,19.252,63.055,19.252c0.585,0,1.165-0.005,1.734-0.016c26.71-0.485,43.189-11.744,43.878-12.224
				c2.162-1.504,3.643-3.801,4.122-6.391C483.134,186.498,478.481,164.19,464.151,148.08z M136.672,119.587
				c5.39-7.677,13.679-12.08,22.742-12.08h0.125c0.429,0.016,0.871,0.051,1.329,0.084c0.585,0.042,1.187,0.085,1.809,0.115
				c3.354,0.152,6.549-1.361,8.535-4.057c1.986-2.696,2.491-6.208,1.345-9.354c-5.229-14.353-2.564-25.369,8.377-34.664
				c4.724-4.005,10.788-6.21,17.077-6.21c4.93,0,9.905,1.335,14.787,3.969c2.433,1.312,5.301,1.559,7.919,0.684
				c2.621-0.877,4.762-2.798,5.916-5.309c5.132-11.17,13.068-18.096,24.273-21.176c8.382-2.314,16.635-1.574,24.762,2.238
				c14.729,6.876,26.087,25.448,18.124,46.326c-0.952,2.497-0.865,5.273,0.241,7.705c1.107,2.433,3.142,4.321,5.65,5.244
				l0.791,0.294c0.842,0.315,1.686,0.628,2.51,0.901c15.17,5.286,25.823,21.977,24.265,38.034c0,0.005-0.001,0.009-0.002,0.014
				c-0.001,0.011-0.002,0.021-0.004,0.033c-1.738,17.738-15.487,32.382-32.011,34.088c-3.131,0.297-5.507,1.613-7.085,2.487
				c-0.035,0.02-5.788,1.54-7.616,3.849c-1.897,2.395-2.594,5.527-1.893,8.502c3.884,16.473,2.418,17.713-7.156,25.817
				c-2.866,2.45-6.745,3.745-11.217,3.745c-4.703,0-9.881-1.451-14.974-4.197c-2.431-1.312-5.293-1.559-7.912-0.684
				c-2.618,0.874-4.759,2.791-5.915,5.298c-4.318,9.364-10.951,15.168-20.275,17.741c-6.999,1.932-13.886,1.304-20.684-1.872
				c-12.268-5.743-21.729-21.247-15.094-38.67c0.944-2.481,0.851-5.241-0.238-7.662c-1.088-2.422-3.107-4.316-5.59-5.258
				c-0.885-0.335-1.884-0.714-2.993-1.075c-4.944-1.734-9.479-4.943-13.122-9.287c-1.088-1.297-2.488-2.297-4.068-2.905
				c-7.824-3.014-13.483-8.821-16.365-16.795C129.893,136.802,131.218,127.356,136.672,119.587z M21.075,207.023
				c-2.96-19.666,0.29-34.99,9.679-45.589c18.38-20.748,55.036-18.736,55.384-18.714c0.128,0.008,0.256,0.015,0.384,0.018
				l25.455,0.699c0.463,2.997,1.203,5.965,2.25,8.861c3.51,9.711,9.707,17.721,17.876,23.336c-0.019,0.029-0.037,0.059-0.056,0.088
				C72.212,234.679,31.419,214.046,21.075,207.023z M320.869,398.813c-22.22,32.838-51.373,50.923-82.09,50.923
				c-30.701,0-59.842-18.084-82.054-50.922c-23.022-34.037-35.702-79.48-35.702-127.958c0-26.648,9.098-54.568,27.053-83.076
				c0.09-0.128,0.181-0.255,0.265-0.386c1.843,1.281,3.76,2.432,5.738,3.441c-4.037,22.301,6.92,44.589,27.956,54.436
				c6.9,3.223,14.05,4.857,21.251,4.857c4.391,0,8.839-0.613,13.223-1.822c11.998-3.312,21.487-10.054,28.313-20.093
				c5.177,1.749,10.4,2.654,15.445,2.654c9.303,0,17.676-2.954,24.176-8.512c12.915-10.932,17.923-18.977,15.465-36.334
				c8.082-1.265,15.667-4.468,22.311-9.111c1.061,1.502,2.101,3.002,3.114,4.5c0.097,0.152,0.199,0.3,0.305,0.447
				c20.542,30.538,30.945,60.433,30.945,88.998C356.582,319.334,343.898,364.776,320.869,398.813z M459.058,206.22
				c-5.169,2.548-15.928,6.756-30.666,6.795c-0.068,0-0.137,0-0.206,0c-27.962,0-57.911-14.994-86.672-43.369
				c-1.597-2.35-3.247-4.701-4.951-7.053c4.083-5.784,7.179-12.346,9-19.381l47.755-0.472c0.187-0.001,0.373-0.009,0.56-0.021
				c0.362-0.028,37.101-1.843,55.329,18.652C458.508,171.829,461.815,186.903,459.058,206.22z"/>
			<path d="M269.497,352.66c-4.483-3.229-10.732-2.212-13.959,2.268c-5.158,7.158-10.461,10.85-15.763,10.97
				c-8.502,0.225-17.071-8.266-19.674-11.548c-3.395-4.333-9.658-5.106-14.01-1.725c-4.359,3.391-5.144,9.674-1.754,14.033
				c1.546,1.987,15.538,19.243,35.137,19.243c0.203,0,0.407-0.002,0.611-0.006c11.963-0.22,22.62-6.705,31.679-19.276
				C274.993,362.139,273.978,355.889,269.497,352.66z"/>
		</g>
	</g>
</g>
<g>
</g>
<g>
</g>
<g>
</g>
<g>
</g>
<g>
</g>
<g>
</g>
<g>
</g>
<g>
</g>
<g>
</g>
<g>
</g>
<g>
</g>
<g>
</g>
<g>
</g>
<g>
</g>
<g>
</g>
</svg>
